# xmcd
#
# Track frame offsets: 
#        150
#        9942
#        19287
#        21737
#        32392
#        36095
#        43125
#        50032
#        53722
#        75455
#        81440
#        90587
#        92710
#        100432
#        108855
#        112420
#        121832
#        126250
#        137440
#        144092
#        146642
#        160040
#        166687
#        168167
#        177637
#        184782
#        191840
#
# Disc length: 2664 seconds
#
# Revision: 1
# Processed by: cddbd v1.5.2PL0 Copyright (c) Steve Scherf et al.
# Submitted via: ExactAudioCopy v0.95b4
#
DISCID=6b0a661b
DTITLE=朱宗慶兒童打擊樂集3 - 故事ㄆ西北雨
DYEAR=2000
DGENRE=Country
TTITLE0=西北雨
TTITLE1=我愛鄉村
TTITLE2=數青蛙
TTITLE3=數蛤蟆
TTITLE4=可愛的露露
TTITLE5=火車快飛
TTITLE6=種樹歌
TTITLE7=爸爸不見了
TTITLE8=母親您真偉大
TTITLE9=沙皮狗
TTITLE10=跳舞歌
TTITLE11=地震
TTITLE12=妹妹背著洋娃銈
TTITLE13=玩具國
TTITLE14=杜比的嘴巴
TTITLE15=青春舞曲
TTITLE16=小畫家杜比
TTITLE17=大公雞
TTITLE18=點仔膠
TTITLE19=化
TTITLE20=茉莉花
TTITLE21=我朋友在哪
TTITLE22=小花貓要生了
TTITLE23=小花貓
TTITLE24=懶惰蟲
TTITLE25=貪玩的杜比
TTITLE26=猜拳
EXTD=Linfair 91305
EXTT0=
EXTT1=
EXTT2=
EXTT3=
EXTT4=
EXTT5=
EXTT6=
EXTT7=
EXTT8=
EXTT9=
EXTT10=
EXTT11=
EXTT12=
EXTT13=
EXTT14=
EXTT15=
EXTT16=
EXTT17=
EXTT18=
EXTT19=
EXTT20=
EXTT21=
EXTT22=
EXTT23=
EXTT24=
EXTT25=
EXTT26=
PLAYORDER=
